<svg width="16" height="17" viewBox="0 0 16 17" fill="none" xmlns="http://www.w3.org/2000/svg">
<path d="M6.37629 10.3449C6.19445 10.1371 5.87857 10.116 5.67075 10.2979C5.46293 10.4797 5.44187 10.7956 5.62371 11.0034L6.37629 10.3449ZM7.95704 13.6701C8.13889 13.8779 8.45477 13.8989 8.66259 13.7171C8.8704 13.5353 8.89146 13.2194 8.70962 13.0116L7.95704 13.6701ZM7.83333 13.3408C7.83333 13.617 8.05719 13.8408 8.33333 13.8408C8.60948 13.8408 8.83333 13.617 8.83333 13.3408H7.83333ZM8.83333 2.67415C8.83333 2.39801 8.60948 2.17415 8.33333 2.17415C8.05719 2.17415 7.83333 2.39801 7.83333 2.67415H8.83333ZM7.95704 13.0116C7.7752 13.2194 7.79626 13.5353 8.00408 13.7171C8.2119 13.8989 8.52778 13.8779 8.70962 13.6701L7.95704 13.0116ZM11.043 11.0034C11.2248 10.7956 11.2037 10.4797 10.9959 10.2979C10.7881 10.116 10.4722 10.1371 10.2904 10.3449L11.043 11.0034ZM8.70962 2.3449C8.52778 2.13708 8.2119 2.11602 8.00408 2.29787C7.79626 2.47971 7.7752 2.79559 7.95704 3.00341L8.70962 2.3449ZM10.2904 5.67007C10.4722 5.87789 10.7881 5.89895 10.9959 5.71711C11.2037 5.53527 11.2248 5.21939 11.043 5.01157L10.2904 5.67007ZM8.70962 3.00341C8.89146 2.79559 8.8704 2.47971 8.66259 2.29787C8.45477 2.11602 8.13889 2.13708 7.95704 2.3449L8.70962 3.00341ZM5.62371 5.01157C5.44187 5.21939 5.46293 5.53527 5.67075 5.71711C5.87857 5.89895 6.19445 5.87789 6.37629 5.67007L5.62371 5.01157ZM5.62371 11.0034L7.95704 13.6701L8.70962 13.0116L6.37629 10.3449L5.62371 11.0034ZM8.83333 13.3408V2.67415H7.83333L7.83333 13.3408H8.83333ZM8.70962 13.6701L11.043 11.0034L10.2904 10.3449L7.95704 13.0116L8.70962 13.6701ZM7.95704 3.00341L10.2904 5.67007L11.043 5.01157L8.70962 2.3449L7.95704 3.00341ZM7.95704 2.3449L5.62371 5.01157L6.37629 5.67007L8.70962 3.00341L7.95704 2.3449Z" fill="#505567"/>
</svg>
