<svg width="24" height="25" viewBox="0 0 24 25" fill="none" xmlns="http://www.w3.org/2000/svg">
<path d="M13.75 10.0192H14.5C14.5 10.0045 14.4996 9.98974 14.4987 9.97501L13.75 10.0192ZM14.2847 9.0957L13.9503 8.42437L14.2847 9.0957ZM15.344 9.22524L15.8446 8.66673C15.8399 8.66253 15.8351 8.65838 15.8303 8.65429L15.344 9.22524ZM18.65 12.1882L19.1569 11.6354L19.1506 11.6297L18.65 12.1882ZM18.65 13.7772L19.1507 14.3357L19.1569 14.33L18.65 13.7772ZM15.344 16.7412L15.8303 17.3122C15.8352 17.3081 15.8399 17.3039 15.8447 17.2997L15.344 16.7412ZM14.2847 16.8708L14.6191 16.1995L14.6191 16.1995L14.2847 16.8708ZM13.75 15.9472L14.4987 15.9915C14.4996 15.9767 14.5 15.962 14.5 15.9472H13.75ZM13.75 13.7332C14.1642 13.7332 14.5 13.3975 14.5 12.9832C14.5 12.569 14.1642 12.2332 13.75 12.2332V13.7332ZM5 12.2332C4.58579 12.2332 4.25 12.569 4.25 12.9832C4.25 13.3975 4.58579 13.7332 5 13.7332V12.2332ZM14.5 12.9832V10.0192H13V12.9832H14.5ZM14.4987 9.97501C14.4935 9.88782 14.5409 9.80597 14.6191 9.76702L13.9503 8.42437C13.3342 8.73128 12.9607 9.37633 13.0013 10.0635L14.4987 9.97501ZM14.6191 9.76702C14.6973 9.72808 14.7912 9.73956 14.8577 9.7962L15.8303 8.65429C15.3063 8.20794 14.5665 8.11746 13.9503 8.42437L14.6191 9.76702ZM14.8434 9.78375L18.1494 12.7468L19.1506 11.6297L15.8446 8.66673L14.8434 9.78375ZM18.1431 12.741C18.2108 12.8031 18.2494 12.8908 18.2494 12.9827H19.7494C19.7494 12.4705 19.5345 11.9817 19.1569 11.6355L18.1431 12.741ZM18.2494 12.9827C18.2494 13.0747 18.2108 13.1624 18.1431 13.2245L19.1569 14.33C19.5345 13.9838 19.7494 13.495 19.7494 12.9827H18.2494ZM18.1493 13.2188L14.8433 16.1828L15.8447 17.2997L19.1507 14.3357L18.1493 13.2188ZM14.8577 16.1703C14.7912 16.2269 14.6973 16.2384 14.6191 16.1995L13.9503 17.5421C14.5665 17.849 15.3063 17.7585 15.8303 17.3122L14.8577 16.1703ZM14.6191 16.1995C14.5409 16.1605 14.4935 16.0787 14.4987 15.9915L13.0013 15.903C12.9607 16.5902 13.3342 17.2352 13.9503 17.5421L14.6191 16.1995ZM14.5 15.9472V12.9832H13V15.9472H14.5ZM13.75 12.2332H5V13.7332H13.75V12.2332Z" fill="#353949"/>
</svg>
