<svg width="24" height="24" viewBox="0 0 24 24" fill="none" xmlns="http://www.w3.org/2000/svg">
<path d="M4.14991 19.0586C3.40314 16.183 3.10756 12.6607 3.0256 10.7486C3.00195 10.1968 3.44772 9.75 4 9.75H12H20C20.5523 9.75 20.998 10.1968 20.9744 10.7486C20.8924 12.6607 20.5969 16.183 19.8501 19.0586C19.6501 19.8287 19.0868 20.4292 18.3043 20.5736C17.133 20.7896 15.1135 21 12 21C8.88651 21 6.86695 20.7896 5.69568 20.5736C4.91323 20.4292 4.3499 19.8287 4.14991 19.0586Z" fill="#F2F3F5"/>
<path d="M4.14991 19.0586C3.40314 16.183 3.10756 12.6607 3.0256 10.7486C3.00195 10.1968 3.44772 9.75 4 9.75H12H20C20.5523 9.75 20.998 10.1968 20.9744 10.7486C20.8924 12.6607 20.5969 16.183 19.8501 19.0586C19.6501 19.8287 19.0868 20.4292 18.3043 20.5736C17.133 20.7896 15.1135 21 12 21C8.88651 21 6.86695 20.7896 5.69568 20.5736C4.91323 20.4292 4.3499 19.8287 4.14991 19.0586Z" stroke="#7D818E" stroke-width="1.5" stroke-linecap="round" stroke-linejoin="round"/>
<path d="M6.7002 8.25V8C6.7002 5.23858 8.93877 3 11.7002 3H12.2002C14.9616 3 17.2002 5.23858 17.2002 8V8.25" stroke="#7D818E" stroke-width="1.5" stroke-linecap="square" stroke-linejoin="round"/>
<path d="M9 14.25V16.5M15 14.25V16.5" stroke="#7D818E" stroke-width="1.5" stroke-linecap="round" stroke-linejoin="round"/>
</svg>
