<svg width="22" height="14" viewBox="0 0 22 14" fill="none" xmlns="http://www.w3.org/2000/svg">
<path fill-rule="evenodd" clip-rule="evenodd" d="M10.6668 11.0304C10.6467 12.0057 9.84326 12.7819 8.86787 12.7686C7.89247 12.7552 7.11065 11.9572 7.11723 10.9818C7.12381 10.0063 7.91632 9.21896 8.89181 9.21875C9.36744 9.22359 9.82166 9.41718 10.1545 9.75694C10.4874 10.0967 10.6717 10.5548 10.6668 11.0304V11.0304Z" stroke="#0093A2" stroke-width="1.5" stroke-linecap="round" stroke-linejoin="round"/>
<path fill-rule="evenodd" clip-rule="evenodd" d="M19.1209 11.0304C19.1008 12.0057 18.2974 12.7819 17.322 12.7686C16.3466 12.7552 15.5648 11.9572 15.5713 10.9818C15.5779 10.0063 16.3704 9.21896 17.3459 9.21875C17.8215 9.22359 18.2758 9.41718 18.6086 9.75694C18.9415 10.0967 19.1258 10.5548 19.1209 11.0304V11.0304Z" stroke="#0093A2" stroke-width="1.5" stroke-linecap="round" stroke-linejoin="round"/>
<path d="M15.3617 11.7803C15.7759 11.7803 16.1117 11.4445 16.1117 11.0303C16.1117 10.6161 15.7759 10.2803 15.3617 10.2803V11.7803ZM10.6667 10.2803C10.2525 10.2803 9.91667 10.6161 9.91667 11.0303C9.91667 11.4445 10.2525 11.7803 10.6667 11.7803V10.2803ZM14.615 11.0303C14.615 11.4445 14.9508 11.7803 15.365 11.7803C15.7792 11.7803 16.115 11.4445 16.115 11.0303H14.615ZM16.115 6.64113C16.115 6.22691 15.7792 5.89113 15.365 5.89113C14.9508 5.89113 14.615 6.22691 14.615 6.64113H16.115ZM15.365 10.2803C14.9508 10.2803 14.615 10.6161 14.615 11.0303C14.615 11.4445 14.9508 11.7803 15.365 11.7803V10.2803ZM15.5742 11.7803C15.9884 11.7803 16.3242 11.4445 16.3242 11.0303C16.3242 10.6161 15.9884 10.2803 15.5742 10.2803V11.7803ZM19.1083 10.2805C18.6942 10.2892 18.3656 10.632 18.3743 11.0461C18.3831 11.4603 18.7259 11.7889 19.14 11.7801L19.1083 10.2805ZM21 9.07946L21.7499 9.06592C21.7492 9.02628 21.7453 8.98677 21.7383 8.94774L21 9.07946ZM21.3033 6.50941C21.2306 6.10163 20.8411 5.83004 20.4333 5.90278C20.0255 5.97553 19.7539 6.36507 19.8267 6.77285L21.3033 6.50941ZM15.3617 1.98946C14.9475 1.98946 14.6117 2.32525 14.6117 2.73946C14.6117 3.15367 14.9475 3.48946 15.3617 3.48946V1.98946ZM18.3375 2.73946L18.3375 3.48947L18.3422 3.48945L18.3375 2.73946ZM19.6955 3.31185L19.1553 3.83216L19.1553 3.83216L19.6955 3.31185ZM20.2167 4.69029L19.4674 4.65751C19.465 4.71262 19.4686 4.76782 19.4783 4.82213L20.2167 4.69029ZM19.8267 6.77296C19.8995 7.18072 20.2891 7.45226 20.6968 7.37945C21.1046 7.30664 21.3761 6.91706 21.3033 6.50929L19.8267 6.77296ZM16.1117 2.73946C16.1117 2.32525 15.7759 1.98946 15.3617 1.98946C14.9475 1.98946 14.6117 2.32525 14.6117 2.73946H16.1117ZM14.6117 6.64113C14.6117 7.05534 14.9475 7.39113 15.3617 7.39113C15.7759 7.39113 16.1117 7.05534 16.1117 6.64113H14.6117ZM14.6117 2.73946C14.6117 3.15367 14.9475 3.48946 15.3617 3.48946C15.7759 3.48946 16.1117 3.15367 16.1117 2.73946H14.6117ZM15.3617 2.07279L14.6117 2.06787V2.07279H15.3617ZM14.475 1.17529L14.4792 0.425293H14.475V1.17529ZM6.4875 1.17529L6.4875 0.425285L6.484 0.425301L6.4875 1.17529ZM5.85821 1.4394L5.32541 0.911553L5.32541 0.911553L5.85821 1.4394ZM5.6 2.07113L6.35001 2.07113L6.34999 2.06761L5.6 2.07113ZM5.6 10.1336L6.35 10.1371V10.1336H5.6ZM5.85821 10.7654L5.32541 11.2932L5.32541 11.2932L5.85821 10.7654ZM6.4875 11.0295L6.484 11.7795H6.4875V11.0295ZM7.11333 11.7795C7.52755 11.7795 7.86333 11.4437 7.86333 11.0295C7.86333 10.6152 7.52755 10.2795 7.11333 10.2795V11.7795ZM15.3633 5.89029C14.9491 5.89029 14.6133 6.22608 14.6133 6.64029C14.6133 7.05451 14.9491 7.39029 15.3633 7.39029V5.89029ZM20.5667 7.39029C20.9809 7.39029 21.3167 7.05451 21.3167 6.64029C21.3167 6.22608 20.9809 5.89029 20.5667 5.89029V7.39029ZM1 2.09196C0.585786 2.09196 0.25 2.42775 0.25 2.84196C0.25 3.25617 0.585786 3.59196 1 3.59196V2.09196ZM3.60833 3.59196C4.02255 3.59196 4.35833 3.25617 4.35833 2.84196C4.35833 2.42775 4.02255 2.09196 3.60833 2.09196V3.59196ZM1.83333 4.59196C1.41912 4.59196 1.08333 4.92775 1.08333 5.34196C1.08333 5.75617 1.41912 6.09196 1.83333 6.09196V4.59196ZM3.5 6.09196C3.91421 6.09196 4.25 5.75617 4.25 5.34196C4.25 4.92775 3.91421 4.59196 3.5 4.59196V6.09196ZM2.34167 7.09196C1.92745 7.09196 1.59167 7.42775 1.59167 7.84196C1.59167 8.25617 1.92745 8.59196 2.34167 8.59196V7.09196ZM3.5 8.59196C3.91421 8.59196 4.25 8.25617 4.25 7.84196C4.25 7.42775 3.91421 7.09196 3.5 7.09196V8.59196ZM15.3617 10.2803H10.6667V11.7803H15.3617V10.2803ZM16.115 11.0303V6.64113H14.615V11.0303H16.115ZM15.365 11.7803H15.5742V10.2803H15.365V11.7803ZM19.14 11.7801C20.6092 11.7491 21.7764 10.5352 21.7499 9.06592L20.2501 9.093C20.2617 9.73582 19.7511 10.2669 19.1083 10.2805L19.14 11.7801ZM21.7383 8.94774L21.3033 6.50941L19.8267 6.77285L20.2617 9.21118L21.7383 8.94774ZM15.3617 3.48946H18.3375V1.98946H15.3617V3.48946ZM18.3422 3.48945C18.6488 3.48751 18.9427 3.61139 19.1553 3.83216L20.2356 2.79153C19.738 2.27487 19.0501 1.98495 18.3328 1.98947L18.3422 3.48945ZM19.1553 3.83216C19.368 4.05293 19.4808 4.35127 19.4674 4.65751L20.9659 4.72308C20.9973 4.00638 20.7333 3.3082 20.2356 2.79153L19.1553 3.83216ZM19.4783 4.82213L19.8267 6.77296L21.3033 6.50929L20.955 4.55846L19.4783 4.82213ZM14.6117 2.73946V6.64113H16.1117V2.73946H14.6117ZM16.1117 2.73946V2.07279H14.6117V2.73946H16.1117ZM16.1117 2.07771C16.1145 1.64205 15.9441 1.22311 15.6379 0.913182L14.5708 1.96738C14.5972 1.99413 14.6119 2.03028 14.6117 2.06787L16.1117 2.07771ZM15.6379 0.913182C15.3317 0.60325 14.9149 0.427738 14.4792 0.425305L14.4708 1.92528C14.5084 1.92549 14.5444 1.94064 14.5708 1.96738L15.6379 0.913182ZM14.475 0.425293H6.4875V1.92529H14.475V0.425293ZM6.484 0.425301C6.0486 0.427331 5.63185 0.602241 5.32541 0.911553L6.39102 1.96725C6.41746 1.94055 6.45342 1.92546 6.491 1.92528L6.484 0.425301ZM5.32541 0.911553C5.01898 1.22087 4.84797 1.63924 4.85001 2.07464L6.34999 2.06761C6.34982 2.03004 6.36457 1.99394 6.39102 1.96725L5.32541 0.911553ZM4.85 2.07113V10.1336H6.35V2.07113H4.85ZM4.85001 10.1301C4.84797 10.5655 5.01898 10.9839 5.32541 11.2932L6.39102 10.2375C6.36457 10.2108 6.34982 10.1747 6.34999 10.1371L4.85001 10.1301ZM5.32541 11.2932C5.63185 11.6025 6.0486 11.7774 6.484 11.7795L6.491 10.2795C6.45342 10.2793 6.41746 10.2642 6.39102 10.2375L5.32541 11.2932ZM6.4875 11.7795H7.11333V10.2795H6.4875V11.7795ZM15.3633 7.39029H20.5667V5.89029H15.3633V7.39029ZM1 3.59196H3.60833V2.09196H1V3.59196ZM1.83333 6.09196H3.5V4.59196H1.83333V6.09196ZM2.34167 8.59196H3.5V7.09196H2.34167V8.59196Z" fill="#0093A2"/>
</svg>
