<svg width="48" height="48" viewBox="0 0 48 48" fill="none" xmlns="http://www.w3.org/2000/svg">
<path d="M3.99219 28.0021L9.09539 19.4967C9.68273 18.5178 10.537 17.7267 11.5581 17.2162L12.7289 16.6308C13.5624 16.214 14.4815 15.9971 15.4133 15.9971H44.0089" stroke="#E2195B" stroke-width="2" stroke-linecap="round" stroke-linejoin="round"/>
<path d="M7.99316 42.0076L19.5217 37.8418C21.1308 37.2604 22.5112 36.1786 23.4604 34.7552L29.4487 25.7756C30.3196 24.4695 30.1475 22.7302 29.0375 21.6202V21.6202C27.7517 20.3345 25.6672 20.3343 24.3812 21.6197L19.9982 26.0009H15.9965" stroke="#E2195B" stroke-width="2" stroke-linecap="round" stroke-linejoin="round"/>
<path d="M27.9647 28.0021H39.3753C41.9805 27.9548 44.0545 25.8054 44.0088 23.2001V14.7966C44.0545 12.1914 41.9805 10.042 39.3753 9.99463H24.6323C22.0271 10.042 19.9531 12.1914 19.9988 14.7966V14.7966V26.0013" stroke="#E2195B" stroke-width="2" stroke-linecap="round" stroke-linejoin="round"/>
</svg>
