<svg width="20" height="21" viewBox="0 0 20 21" fill="none" xmlns="http://www.w3.org/2000/svg">
<path fill-rule="evenodd" clip-rule="evenodd" d="M10 17.502V17.502C5.8575 17.502 2.5 14.1445 2.5 10.002V10.002C2.5 5.85945 5.8575 2.50195 10 2.50195V2.50195C14.1425 2.50195 17.5 5.85945 17.5 10.002V10.002C17.5 14.1445 14.1425 17.502 10 17.502Z" stroke="#7D818E" stroke-width="1.5" stroke-linecap="round" stroke-linejoin="round"/>
<path d="M9.99996 14.1686V10.002H9.16663" stroke="#7D818E" stroke-width="1.5" stroke-linecap="round" stroke-linejoin="round"/>
<path d="M9.79084 6.6686C9.67584 6.6686 9.5825 6.76193 9.58334 6.87693C9.58334 6.99193 9.67667 7.08527 9.79167 7.08527C9.90667 7.08527 10 6.99193 10 6.87693C10 6.76193 9.90667 6.6686 9.79084 6.6686" stroke="#7D818E" stroke-width="1.5" stroke-linecap="round" stroke-linejoin="round"/>
</svg>
