<svg width="24" height="24" viewBox="0 0 24 24" fill="none" xmlns="http://www.w3.org/2000/svg">
<g clip-path="url(#clip0_24_57401)">
<path d="M10.9645 3.14177C10.0018 3.04863 9.01021 3 7.99745 3C6.98467 3 5.9931 3.04863 5.0304 3.14177C3.97107 3.24426 3.16067 4.31798 3.11282 5.62536C3.03892 7.64456 3 9.74066 3 11.8905C3 14.0402 3.03892 16.1364 3.11282 18.1555C3.16067 19.4629 3.97107 20.5366 5.0304 20.6391C5.9931 20.7323 6.98467 20.7809 7.99745 20.7809C9.01021 20.7809 10.0018 20.7323 10.9645 20.6391C12.0238 20.5367 12.8342 19.4629 12.8821 18.1556C12.9084 17.4351 12.9303 16.7049 12.9476 15.9659V7.81501C12.9303 7.07604 12.9084 6.34581 12.8821 5.62536C12.8342 4.31798 12.0238 3.24426 10.9645 3.14177Z" fill="#F2F3F5"/>
<path d="M14.7909 12.0179C14.7909 12.8635 14.933 14.1225 15.0521 15.0298C15.1307 15.6283 15.7279 16.0096 16.2901 15.7895C17.9647 15.1337 19.5293 14.0913 20.5524 12.48C20.7316 12.1979 20.7316 11.838 20.5525 11.5558C19.5294 9.94456 17.9648 8.90218 16.2902 8.24643C15.728 8.02631 15.1308 8.40755 15.0522 9.00608C14.933 9.91332 14.7909 11.1724 14.7909 12.0179Z" fill="#F2F3F5"/>
<path d="M14.7909 12.0179C14.7909 12.8635 14.933 14.1225 15.0521 15.0298C15.1307 15.6283 15.7279 16.0096 16.2901 15.7895C17.9647 15.1337 19.5293 14.0913 20.5524 12.48C20.7316 12.1979 20.7316 11.838 20.5525 11.5558C19.5294 9.94456 17.9648 8.90218 16.2902 8.24643C15.728 8.02631 15.1308 8.40755 15.0522 9.00608C14.933 9.91332 14.7909 11.1724 14.7909 12.0179Z" stroke="#505567" stroke-width="1.5" stroke-linecap="round" stroke-linejoin="round"/>
<path d="M12.8821 5.62536C12.8342 4.31798 12.0238 3.24426 10.9645 3.14177C10.0018 3.04863 9.01021 3 7.99745 3C6.98467 3 5.9931 3.04863 5.0304 3.14177C3.97107 3.24426 3.16067 4.31798 3.11282 5.62536C3.03892 7.64455 3 9.74066 3 11.8905C3 14.0402 3.03892 16.1364 3.11282 18.1555C3.16067 19.4629 3.97107 20.5366 5.0304 20.6391C5.9931 20.7323 6.98467 20.7809 7.99745 20.7809C9.01021 20.7809 10.0018 20.7323 10.9645 20.6391C12.0238 20.5367 12.8342 19.4629 12.8821 18.1556" stroke="#505567" stroke-width="1.5" stroke-linecap="round"/>
<path d="M7.48387 12.0186L14.791 12.0186" stroke="#505567" stroke-width="1.5" stroke-linecap="round" stroke-linejoin="round"/>
</g>
<defs>
<clipPath id="clip0_24_57401">
<rect width="24" height="24" fill="white"/>
</clipPath>
</defs>
</svg>
