<svg width="24" height="24" viewBox="0 0 24 24" fill="none" xmlns="http://www.w3.org/2000/svg">
<path d="M3.49592 17.8199C3.61411 18.7778 4.38404 19.5322 5.34421 19.6302C7.48059 19.8484 9.70887 20.1168 11.9996 20.1168C14.2903 20.1168 16.5186 19.8484 18.655 19.6302C19.6151 19.5322 20.385 18.7778 20.5032 17.8199C20.7341 15.9491 20.9992 14.0011 20.9992 12C20.9992 9.99893 20.7341 8.05086 20.5032 6.18008C20.385 5.22218 19.6151 4.46783 18.655 4.36979C16.5186 4.15164 14.2903 3.88318 11.9996 3.88318C9.70887 3.88318 7.48059 4.15164 5.34421 4.36979C4.38404 4.46783 3.61411 5.22218 3.49592 6.18008C3.26509 8.05086 3 9.99893 3 12C3 14.0011 3.26509 15.9491 3.49592 17.8199Z" stroke="#505567" stroke-width="1.5" stroke-linejoin="round"/>
<path d="M3.44531 6.53455L10.7608 12.3026C11.4871 12.8752 12.5112 12.8752 13.2374 12.3026L20.553 6.53455" stroke="#505567" stroke-width="1.5" stroke-linejoin="round"/>
</svg>
