<svg width="24" height="24" viewBox="0 0 24 24" fill="none" xmlns="http://www.w3.org/2000/svg">
<path d="M4.34492 16.8792C4.50557 18.3191 5.65696 19.4699 7.09625 19.6363C8.6833 19.8197 10.3226 19.9992 11.9996 19.9992C13.6765 19.9992 15.3159 19.8197 16.9029 19.6363C18.3422 19.4699 19.4936 18.3191 19.6542 16.8792C19.8305 15.2997 19.9992 13.6683 19.9992 11.9996C19.9992 10.3308 19.8305 8.69946 19.6542 7.12C19.4936 5.68007 18.3422 4.52923 16.9029 4.36289C15.3159 4.17946 13.6765 4 11.9996 4C10.3226 4 8.6833 4.17946 7.09625 4.36289C5.65696 4.52923 4.50557 5.68007 4.34492 7.12C4.16871 8.69946 4 10.3308 4 11.9996C4 13.6683 4.16871 15.2997 4.34492 16.8792Z" stroke="white" stroke-width="1.5"/>
<path d="M12 8.79932L12 15.1998" stroke="white" stroke-width="1.5" stroke-linecap="round"/>
<path d="M15.1992 11.9985L8.79877 11.9985" stroke="white" stroke-width="1.5" stroke-linecap="round"/>
</svg>
