<svg width="24" height="24" viewBox="0 0 24 24" fill="none" xmlns="http://www.w3.org/2000/svg">
<path d="M7.9594 14.6262C7.56887 15.0168 7.56887 15.6499 7.9594 16.0405C8.34992 16.431 8.98309 16.431 9.37361 16.0405L7.9594 14.6262ZM12.7069 12.7071C13.0975 12.3166 13.0975 11.6834 12.7069 11.2929C12.3164 10.9024 11.6833 10.9024 11.2927 11.2929L12.7069 12.7071ZM11.2927 11.2929C10.9022 11.6834 10.9022 12.3166 11.2927 12.7071C11.6833 13.0977 12.3164 13.0977 12.7069 12.7071L11.2927 11.2929ZM16.0403 9.37379C16.4308 8.98327 16.4308 8.3501 16.0403 7.95958C15.6498 7.56906 15.0166 7.56906 14.6261 7.95958L16.0403 9.37379ZM12.7069 11.2929C12.3164 10.9024 11.6833 10.9024 11.2927 11.2929C10.9022 11.6834 10.9022 12.3166 11.2927 12.7071L12.7069 11.2929ZM14.6261 16.0405C15.0166 16.431 15.6498 16.431 16.0403 16.0405C16.4308 15.6499 16.4308 15.0168 16.0403 14.6262L14.6261 16.0405ZM11.2927 12.7071C11.6833 13.0977 12.3164 13.0977 12.7069 12.7071C13.0975 12.3166 13.0975 11.6834 12.7069 11.2929L11.2927 12.7071ZM9.37361 7.95958C8.98309 7.56906 8.34992 7.56906 7.9594 7.95958C7.56887 8.3501 7.56887 8.98327 7.9594 9.37379L9.37361 7.95958ZM9.37361 16.0405L12.7069 12.7071L11.2927 11.2929L7.9594 14.6262L9.37361 16.0405ZM12.7069 12.7071L16.0403 9.37379L14.6261 7.95958L11.2927 11.2929L12.7069 12.7071ZM11.2927 12.7071L14.6261 16.0405L16.0403 14.6262L12.7069 11.2929L11.2927 12.7071ZM12.7069 11.2929L9.37361 7.95958L7.9594 9.37379L11.2927 12.7071L12.7069 11.2929Z" fill="#E2195B"/>
<rect x="1" y="1" width="22" height="22" rx="11" stroke="#E2195B" stroke-width="2"/>
</svg>
