<svg width="20" height="20" viewBox="0 0 20 20" fill="none" xmlns="http://www.w3.org/2000/svg">
<g clip-path="url(#clip0_1_13432)">
<path d="M2.85788 5.10022C2.85788 4.50586 3.094 3.93584 3.51427 3.51556C3.93455 3.09528 4.50457 2.85917 5.09894 2.85917H6.1176C6.70934 2.85883 7.27693 2.62447 7.69652 2.20722L8.40959 1.49416C8.61785 1.28472 8.86546 1.11852 9.13817 1.00511C9.41089 0.891697 9.70334 0.833313 9.9987 0.833313C10.2941 0.833313 10.5865 0.891697 10.8592 1.00511C11.1319 1.11852 11.3795 1.28472 11.5878 1.49416L12.3009 2.20722C12.7205 2.62447 13.2881 2.85883 13.8798 2.85917H14.8985C15.4928 2.85917 16.0628 3.09528 16.4831 3.51556C16.9034 3.93584 17.1395 4.50586 17.1395 5.10022V6.11888C17.1398 6.71062 17.3742 7.27821 17.7915 7.6978L18.5045 8.41087C18.714 8.61913 18.8802 8.86674 18.9936 9.13946C19.107 9.41217 19.1654 9.70462 19.1654 9.99998C19.1654 10.2953 19.107 10.5878 18.9936 10.8605C18.8802 11.1332 18.714 11.3808 18.5045 11.5891L17.7915 12.3022C17.3742 12.7217 17.1398 13.2893 17.1395 13.8811V14.8997C17.1395 15.4941 16.9034 16.0641 16.4831 16.4844C16.0628 16.9047 15.4928 17.1408 14.8985 17.1408H13.8798C13.2881 17.1411 12.7205 17.3755 12.3009 17.7927L11.5878 18.5058C11.3795 18.7152 11.1319 18.8814 10.8592 18.9948C10.5865 19.1083 10.2941 19.1666 9.9987 19.1666C9.70334 19.1666 9.41089 19.1083 9.13817 18.9948C8.86546 18.8814 8.61785 18.7152 8.40959 18.5058L7.69652 17.7927C7.27693 17.3755 6.70934 17.1411 6.1176 17.1408H5.09894C4.50457 17.1408 3.93455 16.9047 3.51427 16.4844C3.094 16.0641 2.85788 15.4941 2.85788 14.8997V13.8811C2.85755 13.2893 2.62319 12.7217 2.20594 12.3022L1.49288 11.5891C1.28344 11.3808 1.11724 11.1332 1.00383 10.8605C0.890416 10.5878 0.832031 10.2953 0.832031 9.99998C0.832031 9.70462 0.890416 9.41217 1.00383 9.13946C1.11724 8.86674 1.28344 8.61913 1.49288 8.41087L2.20594 7.6978C2.62319 7.27821 2.85755 6.71062 2.85788 6.11888V5.10022Z" fill="#E2195B"/>
<path d="M2.85788 5.10022C2.85788 4.50586 3.094 3.93584 3.51427 3.51556C3.93455 3.09528 4.50457 2.85917 5.09894 2.85917H6.1176C6.70934 2.85883 7.27693 2.62447 7.69652 2.20722L8.40959 1.49416C8.61785 1.28472 8.86546 1.11852 9.13817 1.00511C9.41089 0.891697 9.70334 0.833313 9.9987 0.833313C10.2941 0.833313 10.5865 0.891697 10.8592 1.00511C11.1319 1.11852 11.3795 1.28472 11.5878 1.49416L12.3009 2.20722C12.7205 2.62447 13.2881 2.85883 13.8798 2.85917H14.8985C15.4928 2.85917 16.0628 3.09528 16.4831 3.51556C16.9034 3.93584 17.1395 4.50586 17.1395 5.10022V6.11888C17.1398 6.71062 17.3742 7.27821 17.7915 7.6978L18.5045 8.41087C18.714 8.61913 18.8802 8.86674 18.9936 9.13946C19.107 9.41217 19.1654 9.70462 19.1654 9.99998C19.1654 10.2953 19.107 10.5878 18.9936 10.8605C18.8802 11.1332 18.714 11.3808 18.5045 11.5891L17.7915 12.3022C17.3742 12.7217 17.1398 13.2893 17.1395 13.8811V14.8997C17.1395 15.4941 16.9034 16.0641 16.4831 16.4844C16.0628 16.9047 15.4928 17.1408 14.8985 17.1408H13.8798C13.2881 17.1411 12.7205 17.3755 12.3009 17.7927L11.5878 18.5058C11.3795 18.7152 11.1319 18.8814 10.8592 18.9948C10.5865 19.1083 10.2941 19.1666 9.9987 19.1666C9.70334 19.1666 9.41089 19.1083 9.13817 18.9948C8.86546 18.8814 8.61785 18.7152 8.40959 18.5058L7.69652 17.7927C7.27693 17.3755 6.70934 17.1411 6.1176 17.1408H5.09894C4.50457 17.1408 3.93455 16.9047 3.51427 16.4844C3.094 16.0641 2.85788 15.4941 2.85788 14.8997V13.8811C2.85755 13.2893 2.62319 12.7217 2.20594 12.3022L1.49288 11.5891C1.28344 11.3808 1.11724 11.1332 1.00383 10.8605C0.890416 10.5878 0.832031 10.2953 0.832031 9.99998C0.832031 9.70462 0.890416 9.41217 1.00383 9.13946C1.11724 8.86674 1.28344 8.61913 1.49288 8.41087L2.20594 7.6978C2.62319 7.27821 2.85755 6.71062 2.85788 6.11888V5.10022" stroke="#E2195B" stroke-width="2"/>
<path d="M6.66797 13.3334L13.3346 6.66669" stroke="white" stroke-width="2" stroke-linecap="round" stroke-linejoin="round"/>
<path d="M7.22352 7.7778C7.53035 7.7778 7.77908 7.52907 7.77908 7.22224C7.77908 6.91542 7.53035 6.66669 7.22352 6.66669C6.9167 6.66669 6.66797 6.91542 6.66797 7.22224C6.66797 7.52907 6.9167 7.7778 7.22352 7.7778Z" fill="white" stroke="white" stroke-width="2" stroke-linecap="round" stroke-linejoin="round"/>
<path d="M12.7782 13.3333C13.085 13.3333 13.3338 13.0846 13.3338 12.7778C13.3338 12.471 13.085 12.2222 12.7782 12.2222C12.4714 12.2222 12.2227 12.471 12.2227 12.7778C12.2227 13.0846 12.4714 13.3333 12.7782 13.3333Z" fill="white" stroke="white" stroke-width="2" stroke-linecap="round" stroke-linejoin="round"/>
</g>
<defs>
<clipPath id="clip0_1_13432">
<rect width="20" height="20" fill="white"/>
</clipPath>
</defs>
</svg>
