<svg width="20" height="21" viewBox="0 0 20 21" fill="none" xmlns="http://www.w3.org/2000/svg">
<path fill-rule="evenodd" clip-rule="evenodd" d="M11.5407 7.10446L9.99984 4.17529L8.459 7.10446C8.35015 7.31851 8.1926 7.50404 7.999 7.64613C7.80447 7.78894 7.57936 7.88452 7.3415 7.92529L4.1665 8.54779L6.38317 11.1986C6.68631 11.5309 6.82936 11.9789 6.77484 12.4253L6.35317 15.842L9.2765 14.4253C9.50202 14.3161 9.74926 14.2591 9.99984 14.2586C10.2349 14.2593 10.4664 14.3165 10.6748 14.4253L13.6665 15.7545L13.2448 12.3786C13.1915 11.9332 13.3348 11.4866 13.6373 11.1553L15.8332 8.54779L12.6582 7.92529C12.42 7.88464 12.1946 7.78906 11.9998 7.64613C11.8065 7.50394 11.6493 7.31842 11.5407 7.10446Z" fill="#0093A2" stroke="#0093A2" stroke-width="1.5" stroke-linecap="round" stroke-linejoin="round"/>
</svg>
