<svg width="12" height="7" viewBox="0 0 12 7" fill="none" xmlns="http://www.w3.org/2000/svg">
<path d="M3.66267 1.38361C3.87049 1.20177 3.89154 0.88589 3.7097 0.678072C3.52786 0.470254 3.21198 0.449195 3.00416 0.631036L3.66267 1.38361ZM0.337496 2.96437C0.129677 3.14621 0.108619 3.46209 0.29046 3.66991C0.472301 3.87773 0.788182 3.89879 0.996 3.71695L0.337496 2.96437ZM0.666748 2.84066C0.390606 2.84066 0.166748 3.06452 0.166748 3.34066C0.166748 3.6168 0.390606 3.84066 0.666748 3.84066V2.84066ZM11.3334 3.84066C11.6096 3.84066 11.8334 3.6168 11.8334 3.34066C11.8334 3.06452 11.6096 2.84066 11.3334 2.84066V3.84066ZM0.996 2.96437C0.788182 2.78253 0.472301 2.80359 0.29046 3.0114C0.108619 3.21922 0.129677 3.5351 0.337496 3.71695L0.996 2.96437ZM3.00416 6.05028C3.21198 6.23212 3.52786 6.21106 3.7097 6.00324C3.89154 5.79543 3.87049 5.47954 3.66267 5.2977L3.00416 6.05028ZM11.6627 3.71695C11.8705 3.5351 11.8915 3.21922 11.7097 3.0114C11.5279 2.80359 11.212 2.78253 11.0042 2.96437L11.6627 3.71695ZM8.3375 5.2977C8.12968 5.47954 8.10862 5.79543 8.29046 6.00324C8.4723 6.21106 8.78818 6.23212 8.996 6.05028L8.3375 5.2977ZM11.0042 3.71695C11.212 3.89879 11.5279 3.87773 11.7097 3.66991C11.8915 3.46209 11.8705 3.14621 11.6627 2.96437L11.0042 3.71695ZM8.996 0.631036C8.78818 0.449195 8.4723 0.470254 8.29046 0.678072C8.10862 0.88589 8.12968 1.20177 8.3375 1.38361L8.996 0.631036ZM3.00416 0.631036L0.337496 2.96437L0.996 3.71695L3.66267 1.38361L3.00416 0.631036ZM0.666748 3.84066H11.3334V2.84066H0.666748V3.84066ZM0.337496 3.71695L3.00416 6.05028L3.66267 5.2977L0.996 2.96437L0.337496 3.71695ZM11.0042 2.96437L8.3375 5.2977L8.996 6.05028L11.6627 3.71695L11.0042 2.96437ZM11.6627 2.96437L8.996 0.631036L8.3375 1.38361L11.0042 3.71695L11.6627 2.96437Z" fill="#505567"/>
</svg>
