<svg width="22" height="21" viewBox="0 0 22 21" fill="none" xmlns="http://www.w3.org/2000/svg">
<path fill-rule="evenodd" clip-rule="evenodd" d="M10.6668 14.0304C10.6467 15.0057 9.84326 15.7819 8.86787 15.7686C7.89247 15.7552 7.11065 14.9572 7.11723 13.9818C7.12381 13.0063 7.91632 12.219 8.89181 12.2188C9.36744 12.2236 9.82166 12.4172 10.1545 12.7569C10.4874 13.0967 10.6717 13.5548 10.6668 14.0304V14.0304Z" stroke="#0093A2" stroke-width="1.5" stroke-linecap="round" stroke-linejoin="round"/>
<path fill-rule="evenodd" clip-rule="evenodd" d="M19.1209 14.0304C19.1008 15.0057 18.2974 15.7819 17.322 15.7686C16.3466 15.7552 15.5648 14.9572 15.5713 13.9818C15.5779 13.0063 16.3704 12.219 17.3459 12.2188C17.8215 12.2236 18.2758 12.4172 18.6086 12.7569C18.9415 13.0967 19.1258 13.5548 19.1209 14.0304V14.0304Z" stroke="#0093A2" stroke-width="1.5" stroke-linecap="round" stroke-linejoin="round"/>
<path d="M15.3617 14.7803C15.7759 14.7803 16.1117 14.4445 16.1117 14.0303C16.1117 13.6161 15.7759 13.2803 15.3617 13.2803V14.7803ZM10.6667 13.2803C10.2525 13.2803 9.91667 13.6161 9.91667 14.0303C9.91667 14.4445 10.2525 14.7803 10.6667 14.7803V13.2803ZM14.615 14.0303C14.615 14.4445 14.9508 14.7803 15.365 14.7803C15.7792 14.7803 16.115 14.4445 16.115 14.0303H14.615ZM16.115 9.64113C16.115 9.22691 15.7792 8.89113 15.365 8.89113C14.9508 8.89113 14.615 9.22691 14.615 9.64113H16.115ZM15.365 13.2803C14.9508 13.2803 14.615 13.6161 14.615 14.0303C14.615 14.4445 14.9508 14.7803 15.365 14.7803V13.2803ZM15.5742 14.7803C15.9884 14.7803 16.3242 14.4445 16.3242 14.0303C16.3242 13.6161 15.9884 13.2803 15.5742 13.2803V14.7803ZM19.1083 13.2805C18.6942 13.2892 18.3656 13.632 18.3743 14.0461C18.3831 14.4603 18.7259 14.7889 19.14 14.7801L19.1083 13.2805ZM21 12.0795L21.7499 12.0659C21.7492 12.0263 21.7453 11.9868 21.7383 11.9477L21 12.0795ZM21.3033 9.50941C21.2306 9.10163 20.8411 8.83004 20.4333 8.90278C20.0255 8.97553 19.7539 9.36507 19.8267 9.77285L21.3033 9.50941ZM15.3617 4.98946C14.9475 4.98946 14.6117 5.32525 14.6117 5.73946C14.6117 6.15367 14.9475 6.48946 15.3617 6.48946V4.98946ZM18.3375 5.73946L18.3375 6.48947L18.3422 6.48945L18.3375 5.73946ZM19.6955 6.31185L19.1553 6.83216L19.1553 6.83216L19.6955 6.31185ZM20.2167 7.69029L19.4674 7.65751C19.465 7.71262 19.4686 7.76782 19.4783 7.82213L20.2167 7.69029ZM19.8267 9.77296C19.8995 10.1807 20.2891 10.4523 20.6968 10.3794C21.1046 10.3066 21.3761 9.91706 21.3033 9.50929L19.8267 9.77296ZM16.1117 5.73946C16.1117 5.32525 15.7759 4.98946 15.3617 4.98946C14.9475 4.98946 14.6117 5.32525 14.6117 5.73946H16.1117ZM14.6117 9.64113C14.6117 10.0553 14.9475 10.3911 15.3617 10.3911C15.7759 10.3911 16.1117 10.0553 16.1117 9.64113H14.6117ZM14.6117 5.73946C14.6117 6.15367 14.9475 6.48946 15.3617 6.48946C15.7759 6.48946 16.1117 6.15367 16.1117 5.73946H14.6117ZM15.3617 5.07279L14.6117 5.06787V5.07279H15.3617ZM14.475 4.17529L14.4792 3.42529H14.475V4.17529ZM6.4875 4.17529L6.4875 3.42528L6.484 3.4253L6.4875 4.17529ZM5.85821 4.4394L5.32541 3.91155L5.32541 3.91155L5.85821 4.4394ZM5.6 5.07113L6.35001 5.07113L6.34999 5.06761L5.6 5.07113ZM5.6 13.1336L6.35 13.1371V13.1336H5.6ZM5.85821 13.7654L5.32541 14.2932L5.32541 14.2932L5.85821 13.7654ZM6.4875 14.0295L6.484 14.7795H6.4875V14.0295ZM7.11333 14.7795C7.52755 14.7795 7.86333 14.4437 7.86333 14.0295C7.86333 13.6152 7.52755 13.2795 7.11333 13.2795V14.7795ZM15.3633 8.89029C14.9491 8.89029 14.6133 9.22608 14.6133 9.64029C14.6133 10.0545 14.9491 10.3903 15.3633 10.3903V8.89029ZM20.5667 10.3903C20.9809 10.3903 21.3167 10.0545 21.3167 9.64029C21.3167 9.22608 20.9809 8.89029 20.5667 8.89029V10.3903ZM1 5.09196C0.585786 5.09196 0.25 5.42775 0.25 5.84196C0.25 6.25617 0.585786 6.59196 1 6.59196V5.09196ZM3.60833 6.59196C4.02255 6.59196 4.35833 6.25617 4.35833 5.84196C4.35833 5.42775 4.02255 5.09196 3.60833 5.09196V6.59196ZM1.83333 7.59196C1.41912 7.59196 1.08333 7.92775 1.08333 8.34196C1.08333 8.75617 1.41912 9.09196 1.83333 9.09196V7.59196ZM3.5 9.09196C3.91421 9.09196 4.25 8.75617 4.25 8.34196C4.25 7.92775 3.91421 7.59196 3.5 7.59196V9.09196ZM2.34167 10.092C1.92745 10.092 1.59167 10.4277 1.59167 10.842C1.59167 11.2562 1.92745 11.592 2.34167 11.592V10.092ZM3.5 11.592C3.91421 11.592 4.25 11.2562 4.25 10.842C4.25 10.4277 3.91421 10.092 3.5 10.092V11.592ZM15.3617 13.2803H10.6667V14.7803H15.3617V13.2803ZM16.115 14.0303V9.64113H14.615V14.0303H16.115ZM15.365 14.7803H15.5742V13.2803H15.365V14.7803ZM19.14 14.7801C20.6092 14.7491 21.7764 13.5352 21.7499 12.0659L20.2501 12.093C20.2617 12.7358 19.7511 13.2669 19.1083 13.2805L19.14 14.7801ZM21.7383 11.9477L21.3033 9.50941L19.8267 9.77285L20.2617 12.2112L21.7383 11.9477ZM15.3617 6.48946H18.3375V4.98946H15.3617V6.48946ZM18.3422 6.48945C18.6488 6.48751 18.9427 6.61139 19.1553 6.83216L20.2356 5.79153C19.738 5.27487 19.0501 4.98495 18.3328 4.98947L18.3422 6.48945ZM19.1553 6.83216C19.368 7.05293 19.4808 7.35127 19.4674 7.65751L20.9659 7.72308C20.9973 7.00638 20.7333 6.3082 20.2356 5.79153L19.1553 6.83216ZM19.4783 7.82213L19.8267 9.77296L21.3033 9.50929L20.955 7.55846L19.4783 7.82213ZM14.6117 5.73946V9.64113H16.1117V5.73946H14.6117ZM16.1117 5.73946V5.07279H14.6117V5.73946H16.1117ZM16.1117 5.07771C16.1145 4.64205 15.9441 4.22311 15.6379 3.91318L14.5708 4.96738C14.5972 4.99413 14.6119 5.03028 14.6117 5.06787L16.1117 5.07771ZM15.6379 3.91318C15.3317 3.60325 14.9149 3.42774 14.4792 3.4253L14.4708 4.92528C14.5084 4.92549 14.5444 4.94064 14.5708 4.96738L15.6379 3.91318ZM14.475 3.42529H6.4875V4.92529H14.475V3.42529ZM6.484 3.4253C6.0486 3.42733 5.63185 3.60224 5.32541 3.91155L6.39102 4.96725C6.41746 4.94055 6.45342 4.92546 6.491 4.92528L6.484 3.4253ZM5.32541 3.91155C5.01898 4.22087 4.84797 4.63924 4.85001 5.07464L6.34999 5.06761C6.34982 5.03004 6.36457 4.99394 6.39102 4.96725L5.32541 3.91155ZM4.85 5.07113V13.1336H6.35V5.07113H4.85ZM4.85001 13.1301C4.84797 13.5655 5.01898 13.9839 5.32541 14.2932L6.39102 13.2375C6.36457 13.2108 6.34982 13.1747 6.34999 13.1371L4.85001 13.1301ZM5.32541 14.2932C5.63185 14.6025 6.0486 14.7774 6.484 14.7795L6.491 13.2795C6.45342 13.2793 6.41746 13.2642 6.39102 13.2375L5.32541 14.2932ZM6.4875 14.7795H7.11333V13.2795H6.4875V14.7795ZM15.3633 10.3903H20.5667V8.89029H15.3633V10.3903ZM1 6.59196H3.60833V5.09196H1V6.59196ZM1.83333 9.09196H3.5V7.59196H1.83333V9.09196ZM2.34167 11.592H3.5V10.092H2.34167V11.592Z" fill="#0093A2"/>
</svg>
