<svg width="24" height="24" viewBox="0 0 24 24" fill="none" xmlns="http://www.w3.org/2000/svg">
<g clip-path="url(#clip0_24_57339)">
<path d="M21.0002 3H19.5671C18.6345 3 17.8257 3.64455 17.6176 4.55362L16.6562 8.75228" stroke="#505567" stroke-width="1.5" stroke-linecap="round" stroke-linejoin="round"/>
<path d="M3.03248 9.51022C3.19739 12.0583 3.95639 14.1532 4.52493 15.2927C4.71501 15.6737 5.02522 15.9752 5.43123 16.1035C6.10697 16.317 7.43555 16.5921 9.7957 16.5921C12.1559 16.5921 13.4844 16.317 14.1602 16.1035C14.5662 15.9752 14.8764 15.6737 15.0665 15.2927C15.7078 14.0073 16.5914 11.5065 16.5914 8.51074H4C3.44772 8.51074 2.99681 8.95909 3.03248 9.51022Z" fill="#F2F3F5"/>
<path d="M3.03248 9.51022C3.19739 12.0583 3.95639 14.1532 4.52493 15.2927C4.71501 15.6737 5.02522 15.9752 5.43123 16.1035C6.10697 16.317 7.43555 16.5921 9.7957 16.5921C12.1559 16.5921 13.4844 16.317 14.1602 16.1035C14.5662 15.9752 14.8764 15.6737 15.0665 15.2927C15.7078 14.0073 16.5914 11.5065 16.5914 8.51074H4C3.44772 8.51074 2.99681 8.95909 3.03248 9.51022Z" stroke="#505567" stroke-width="1.5" stroke-linecap="round" stroke-linejoin="round"/>
<path d="M4.83623 21.0011C5.24198 21.0011 5.5709 20.6722 5.5709 20.2664C5.5709 19.8607 5.24198 19.5317 4.83623 19.5317C4.43049 19.5317 4.10156 19.8607 4.10156 20.2664C4.10156 20.6722 4.43049 21.0011 4.83623 21.0011Z" fill="#505567" stroke="#505567" stroke-width="1.5" stroke-linecap="round" stroke-linejoin="round"/>
<path d="M14.387 21.0011C14.7928 21.0011 15.1217 20.6722 15.1217 20.2664C15.1217 19.8607 14.7928 19.5317 14.387 19.5317C13.9813 19.5317 13.6523 19.8607 13.6523 20.2664C13.6523 20.6722 13.9813 21.0011 14.387 21.0011Z" fill="#505567" stroke="#505567" stroke-width="1.5" stroke-linecap="round" stroke-linejoin="round"/>
</g>
<defs>
<clipPath id="clip0_24_57339">
<rect width="24" height="24" fill="white"/>
</clipPath>
</defs>
</svg>
