<svg width="24" height="24" viewBox="0 0 24 24" fill="none" xmlns="http://www.w3.org/2000/svg">
<path d="M4.36556 17.9972C4.53646 19.4355 5.69525 20.5768 7.14119 20.6612C8.76277 20.7557 10.3992 20.8053 12.2083 20.8053C14.0173 20.8053 15.6538 20.7557 17.2753 20.6612C18.7213 20.5768 19.8801 19.4355 20.051 17.9972C20.2377 16.4257 20.416 14.8026 20.416 13.1424C20.416 11.4822 20.2377 9.85914 20.051 8.28763C19.8801 6.84935 18.7213 5.70801 17.2753 5.62367C15.6538 5.52907 14.0173 5.47949 12.2083 5.47949C10.3992 5.47949 8.76277 5.52907 7.14119 5.62367C5.69525 5.70801 4.53646 6.84935 4.36556 8.28763C4.17883 9.85914 4.00049 11.4822 4.00049 13.1424C4.00049 14.8026 4.17883 16.4257 4.36556 17.9972Z" fill="white"/>
<path d="M9.18848 4.00073L9.18848 7.41402" stroke="#505567" stroke-width="1.5" stroke-linecap="round"/>
<path d="M15.2183 4.00073L15.2183 7.41402" stroke="#505567" stroke-width="1.5" stroke-linecap="round"/>
<path d="M4.36556 17.9972C4.53646 19.4355 5.69525 20.5768 7.14119 20.6612C8.76277 20.7557 10.3992 20.8053 12.2083 20.8053C14.0173 20.8053 15.6538 20.7557 17.2753 20.6612C18.7213 20.5768 19.8801 19.4355 20.051 17.9972C20.2377 16.4257 20.416 14.8026 20.416 13.1424C20.416 11.4822 20.2377 9.85914 20.051 8.28763C19.8801 6.84935 18.7213 5.70801 17.2753 5.62367C15.6538 5.52907 14.0173 5.47949 12.2083 5.47949C10.3992 5.47949 8.76277 5.52907 7.14119 5.62367C5.69525 5.70801 4.53646 6.84935 4.36556 8.28763C4.17883 9.85914 4.00049 11.4822 4.00049 13.1424C4.00049 14.8026 4.17883 16.4257 4.36556 17.9972Z" stroke="#505567" stroke-width="1.5"/>
<path d="M4.39355 11.3596H20.1044" stroke="#505567" stroke-width="1.5"/>
</svg>
