<svg width="24" height="24" viewBox="0 0 24 24" fill="none" xmlns="http://www.w3.org/2000/svg">
<path d="M4.14991 19.0586C3.40314 16.183 3.10756 12.6607 3.0256 10.7486C3.00195 10.1968 3.44772 9.75 4 9.75H20C20.5523 9.75 20.998 10.1968 20.9744 10.7486C20.8924 12.6607 20.5969 16.183 19.8501 19.0586C19.6501 19.8287 19.0868 20.4292 18.3043 20.5736C17.133 20.7896 15.1135 21 12 21C8.88651 21 6.86695 20.7896 5.69568 20.5736C4.91323 20.4292 4.3499 19.8287 4.14991 19.0586Z" fill="#F2F6F7"/>
<path d="M4.14991 19.0586C3.40314 16.183 3.10756 12.6607 3.0256 10.7486C3.00195 10.1968 3.44772 9.75 4 9.75H20C20.5523 9.75 20.998 10.1968 20.9744 10.7486C20.8924 12.6607 20.5969 16.183 19.8501 19.0586C19.6501 19.8287 19.0868 20.4292 18.3043 20.5736C17.133 20.7896 15.1135 21 12 21C8.88651 21 6.86695 20.7896 5.69568 20.5736C4.91323 20.4292 4.3499 19.8287 4.14991 19.0586Z" stroke="#7D818E" stroke-width="1.5" stroke-linecap="round" stroke-linejoin="round"/>
<path d="M6.75098 9.75V8C6.75098 5.23857 8.98955 3 11.751 3H12.251C15.0124 3 17.251 5.23858 17.251 8V9.75" stroke="#7D818E" stroke-width="1.5" stroke-linecap="round" stroke-linejoin="round"/>
<path d="M9.00049 14.25V16.5M15.0005 14.25V16.5" stroke="#7D818E" stroke-width="1.5" stroke-linecap="round" stroke-linejoin="round"/>
</svg>
