<svg width="22" height="21" viewBox="0 0 22 21" fill="none" xmlns="http://www.w3.org/2000/svg">
<path fill-rule="evenodd" clip-rule="evenodd" d="M10.6668 14.0304C10.6467 15.0057 9.84326 15.7819 8.86787 15.7686C7.89247 15.7552 7.11065 14.9572 7.11723 13.9818C7.12381 13.0063 7.91632 12.219 8.89181 12.2188C9.36744 12.2236 9.82166 12.4172 10.1545 12.7569C10.4874 13.0967 10.6717 13.5548 10.6668 14.0304V14.0304Z" stroke="#0093A2" stroke-width="1.5" stroke-linecap="round" stroke-linejoin="round"/>
<path fill-rule="evenodd" clip-rule="evenodd" d="M19.1209 14.0304C19.1008 15.0057 18.2974 15.7819 17.322 15.7686C16.3466 15.7552 15.5648 14.9572 15.5713 13.9818C15.5779 13.0063 16.3704 12.219 17.3459 12.2188C17.8215 12.2236 18.2758 12.4172 18.6086 12.7569C18.9415 13.0967 19.1258 13.5548 19.1209 14.0304V14.0304Z" stroke="#0093A2" stroke-width="1.5" stroke-linecap="round" stroke-linejoin="round"/>
<path d="M15.3617 14.7804C15.7759 14.7804 16.1117 14.4446 16.1117 14.0304C16.1117 13.6162 15.7759 13.2804 15.3617 13.2804V14.7804ZM10.6667 13.2804C10.2525 13.2804 9.91667 13.6162 9.91667 14.0304C9.91667 14.4446 10.2525 14.7804 10.6667 14.7804V13.2804ZM14.615 14.0304C14.615 14.4446 14.9508 14.7804 15.365 14.7804C15.7792 14.7804 16.115 14.4446 16.115 14.0304H14.615ZM16.115 9.64125C16.115 9.22703 15.7792 8.89125 15.365 8.89125C14.9508 8.89125 14.615 9.22703 14.615 9.64125H16.115ZM15.365 13.2804C14.9508 13.2804 14.615 13.6162 14.615 14.0304C14.615 14.4446 14.9508 14.7804 15.365 14.7804V13.2804ZM15.5742 14.7804C15.9884 14.7804 16.3242 14.4446 16.3242 14.0304C16.3242 13.6162 15.9884 13.2804 15.5742 13.2804V14.7804ZM19.1083 13.2806C18.6942 13.2893 18.3656 13.6321 18.3743 14.0463C18.3831 14.4604 18.7259 14.789 19.14 14.7802L19.1083 13.2806ZM21 12.0796L21.7499 12.066C21.7492 12.0264 21.7453 11.9869 21.7383 11.9479L21 12.0796ZM21.3033 9.50953C21.2306 9.10175 20.8411 8.83016 20.4333 8.90291C20.0255 8.97565 19.7539 9.36519 19.8267 9.77297L21.3033 9.50953ZM15.3617 4.98958C14.9475 4.98958 14.6117 5.32537 14.6117 5.73958C14.6117 6.1538 14.9475 6.48958 15.3617 6.48958V4.98958ZM18.3375 5.73958V6.4896L18.3422 6.48957L18.3375 5.73958ZM19.6955 6.31197L19.1553 6.83229L19.6955 6.31197ZM20.2167 7.69042L19.4674 7.65763C19.465 7.71274 19.4686 7.76795 19.4783 7.82225L20.2167 7.69042ZM19.8267 9.77308C19.8995 10.1808 20.2891 10.4524 20.6968 10.3796C21.1046 10.3068 21.3761 9.91718 21.3033 9.50942L19.8267 9.77308ZM16.1117 5.73958C16.1117 5.32537 15.7759 4.98958 15.3617 4.98958C14.9475 4.98958 14.6117 5.32537 14.6117 5.73958H16.1117ZM14.6117 9.64125C14.6117 10.0555 14.9475 10.3912 15.3617 10.3912C15.7759 10.3912 16.1117 10.0555 16.1117 9.64125H14.6117ZM14.6117 5.73958C14.6117 6.1538 14.9475 6.48958 15.3617 6.48958C15.7759 6.48958 16.1117 6.1538 16.1117 5.73958H14.6117ZM15.3617 5.07291L14.6117 5.068V5.07291H15.3617ZM14.475 4.17542L14.4792 3.42542H14.475V4.17542ZM6.4875 4.17542V3.42541L6.484 3.42542L6.4875 4.17542ZM5.85821 4.43952L5.32541 3.91168V3.91168L5.85821 4.43952ZM5.6 5.07125H6.35001L6.34999 5.06774L5.6 5.07125ZM5.6 13.1337L6.35 13.1373V13.1337H5.6ZM5.85821 13.7655L5.32541 14.2933L5.85821 13.7655ZM6.4875 14.0296L6.484 14.7796H6.4875V14.0296ZM7.11333 14.7796C7.52755 14.7796 7.86333 14.4438 7.86333 14.0296C7.86333 13.6154 7.52755 13.2796 7.11333 13.2796V14.7796ZM15.3633 8.89042C14.9491 8.89042 14.6133 9.2262 14.6133 9.64042C14.6133 10.0546 14.9491 10.3904 15.3633 10.3904V8.89042ZM20.5667 10.3904C20.9809 10.3904 21.3167 10.0546 21.3167 9.64042C21.3167 9.2262 20.9809 8.89042 20.5667 8.89042V10.3904ZM1 5.09208C0.585786 5.09208 0.25 5.42787 0.25 5.84208C0.25 6.2563 0.585786 6.59208 1 6.59208V5.09208ZM3.60833 6.59208C4.02255 6.59208 4.35833 6.2563 4.35833 5.84208C4.35833 5.42787 4.02255 5.09208 3.60833 5.09208V6.59208ZM1.83333 7.59208C1.41912 7.59208 1.08333 7.92787 1.08333 8.34208C1.08333 8.7563 1.41912 9.09208 1.83333 9.09208V7.59208ZM3.5 9.09208C3.91421 9.09208 4.25 8.7563 4.25 8.34208C4.25 7.92787 3.91421 7.59208 3.5 7.59208V9.09208ZM2.34167 10.0921C1.92745 10.0921 1.59167 10.4279 1.59167 10.8421C1.59167 11.2563 1.92745 11.5921 2.34167 11.5921V10.0921ZM3.5 11.5921C3.91421 11.5921 4.25 11.2563 4.25 10.8421C4.25 10.4279 3.91421 10.0921 3.5 10.0921V11.5921ZM15.3617 13.2804H10.6667V14.7804H15.3617V13.2804ZM16.115 14.0304V9.64125H14.615V14.0304H16.115ZM15.365 14.7804H15.5742V13.2804H15.365V14.7804ZM19.14 14.7802C20.6092 14.7492 21.7764 13.5353 21.7499 12.066L20.2501 12.0931C20.2617 12.7359 19.7511 13.267 19.1083 13.2806L19.14 14.7802ZM21.7383 11.9479L21.3033 9.50953L19.8267 9.77297L20.2617 12.2113L21.7383 11.9479ZM15.3617 6.48958H18.3375V4.98958H15.3617V6.48958ZM18.3422 6.48957C18.6488 6.48763 18.9427 6.61152 19.1553 6.83229L20.2356 5.79165C19.738 5.27499 19.0501 4.98507 18.3328 4.9896L18.3422 6.48957ZM19.1553 6.83229C19.368 7.05306 19.4808 7.35139 19.4674 7.65763L20.9659 7.7232C20.9973 7.00651 20.7333 6.30832 20.2356 5.79165L19.1553 6.83229ZM19.4783 7.82225L19.8267 9.77308L21.3033 9.50942L20.955 7.55858L19.4783 7.82225ZM14.6117 5.73958V9.64125H16.1117V5.73958H14.6117ZM16.1117 5.73958V5.07291H14.6117V5.73958H16.1117ZM16.1117 5.07783C16.1145 4.64217 15.9441 4.22324 15.6379 3.9133L14.5708 4.9675C14.5972 4.99425 14.6119 5.0304 14.6117 5.068L16.1117 5.07783ZM15.6379 3.9133C15.3317 3.60337 14.9149 3.42786 14.4792 3.42543L14.4708 4.9254C14.5084 4.92561 14.5444 4.94076 14.5708 4.9675L15.6379 3.9133ZM14.475 3.42542H6.4875V4.92542H14.475V3.42542ZM6.484 3.42542C6.0486 3.42745 5.63185 3.60236 5.32541 3.91168L6.39102 4.96737C6.41746 4.94068 6.45342 4.92558 6.491 4.92541L6.484 3.42542ZM5.32541 3.91168C5.01898 4.22099 4.84797 4.63936 4.85001 5.07476L6.34999 5.06774C6.34982 5.03016 6.36457 4.99406 6.39102 4.96737L5.32541 3.91168ZM4.85 5.07125V13.1337H6.35V5.07125H4.85ZM4.85001 13.1302C4.84797 13.5656 5.01898 13.984 5.32541 14.2933L6.39102 13.2376C6.36457 13.2109 6.34982 13.1748 6.34999 13.1373L4.85001 13.1302ZM5.32541 14.2933C5.63185 14.6026 6.0486 14.7775 6.484 14.7796L6.491 13.2796C6.45342 13.2794 6.41746 13.2643 6.39102 13.2376L5.32541 14.2933ZM6.4875 14.7796H7.11333V13.2796H6.4875V14.7796ZM15.3633 10.3904H20.5667V8.89042H15.3633V10.3904ZM1 6.59208H3.60833V5.09208H1V6.59208ZM1.83333 9.09208H3.5V7.59208H1.83333V9.09208ZM2.34167 11.5921H3.5V10.0921H2.34167V11.5921Z" fill="#0093A2"/>
</svg>
