<svg width="24" height="24" viewBox="0 0 24 24" fill="none" xmlns="http://www.w3.org/2000/svg">
<path fill-rule="evenodd" clip-rule="evenodd" d="M9.95628 18.6351L17.9856 11.033C19.3202 9.76942 19.2171 7.53256 17.758 6.09819C16.3332 4.69761 14.1603 4.60136 12.9045 5.88321L5.09409 13.8553C5.09409 13.8553 6.82426 14.5437 8.04017 15.739C9.25607 16.9342 9.95628 18.6351 9.95628 18.6351Z" fill="#F2F3F5"/>
<path fill-rule="evenodd" clip-rule="evenodd" d="M9.95628 18.6351L17.9856 11.033C19.3202 9.76942 19.2171 7.53256 17.758 6.09819C16.3332 4.69761 14.1603 4.60136 12.9045 5.88321L5.09409 13.8553C5.09409 13.8553 6.82426 14.5437 8.04017 15.739C9.25607 16.9342 9.95628 18.6351 9.95628 18.6351Z" stroke="#505567" stroke-width="1.5" stroke-linecap="round" stroke-linejoin="round"/>
<path d="M4.24904 20.1087L9.95085 18.6411C9.95085 18.6411 9.2522 16.9396 8.0374 15.7432C6.8226 14.5468 5.09306 13.8569 5.09306 13.8569L3.59302 19.4469C3.4918 19.8242 3.87045 20.2061 4.24904 20.1087Z" fill="white"/>
<path d="M4.24904 20.1087L9.95085 18.6411C9.95085 18.6411 9.2522 16.9396 8.0374 15.7432C6.8226 14.5468 5.09306 13.8569 5.09306 13.8569L3.59302 19.4469C3.4918 19.8242 3.87045 20.2061 4.24904 20.1087Z" stroke="#505567" stroke-width="1.5" stroke-linecap="round" stroke-linejoin="round"/>
</svg>
