<svg width="24" height="24" viewBox="0 0 24 24" fill="none" xmlns="http://www.w3.org/2000/svg">
<path d="M3 14.0284L11.2565 4.84992C11.6538 4.40829 12.3462 4.40829 12.7435 4.84992L21 14.0284" stroke="#7D818E" stroke-width="1.5" stroke-linecap="round" stroke-linejoin="round"/>
<path d="M5.76897 10.9567L11.2548 4.83168C11.6523 4.38792 12.3472 4.38792 12.7446 4.83168L18.2305 10.9567L18.5167 12.9136C18.7859 14.7536 18.7727 16.6239 18.4777 18.46C18.3352 19.3463 17.5703 19.9981 16.6726 19.9981H7.32685C6.42913 19.9981 5.66423 19.3463 5.5218 18.46C5.22677 16.6239 5.21359 14.7536 5.48273 12.9136L5.76897 10.9567Z" fill="#F2F6F7"/>
<path d="M5.76897 10.9567L11.2548 4.83168C11.6523 4.38792 12.3472 4.38792 12.7446 4.83168L18.2305 10.9567L18.5167 12.9136C18.7859 14.7536 18.7727 16.6239 18.4777 18.46C18.3352 19.3463 17.5703 19.9981 16.6726 19.9981H7.32685C6.42913 19.9981 5.66423 19.3463 5.5218 18.46C5.22677 16.6239 5.21359 14.7536 5.48273 12.9136L5.76897 10.9567Z" stroke="#7D818E" stroke-width="1.5" stroke-linejoin="round"/>
<path d="M11.9995 13.5039C13.3257 13.5039 14.4009 14.5342 14.4009 15.8052V20.0003H9.59814V15.8052C9.59814 14.5342 10.6733 13.5039 11.9995 13.5039Z" fill="white" stroke="#7D818E" stroke-width="1.5" stroke-linecap="round" stroke-linejoin="round"/>
</svg>
