<svg width="24" height="24" viewBox="0 0 24 24" fill="none" xmlns="http://www.w3.org/2000/svg">
<g clip-path="url(#clip0_24_57385)">
<path d="M12.0006 21.0001C17.7609 21.0001 21.0011 17.7599 21.0011 11.9996C21.0011 6.23922 17.7609 2.99902 12.0006 2.99902C6.2402 2.99902 3 6.23922 3 11.9996C3 17.7599 6.2402 21.0001 12.0006 21.0001Z" fill="#F2F3F5"/>
<path d="M12.0006 21.0001C17.7609 21.0001 21.0011 17.7599 21.0011 11.9996C21.0011 6.23922 17.7609 2.99902 12.0006 2.99902C6.2402 2.99902 3 6.23922 3 11.9996C3 17.7599 6.2402 21.0001 12.0006 21.0001Z" stroke="#505567" stroke-width="1.5" stroke-linecap="round" stroke-linejoin="round"/>
<path d="M8.40039 15.6008L15.6008 8.40039" stroke="#505567" stroke-width="1.5" stroke-linecap="round" stroke-linejoin="round"/>
<path d="M9.12044 9.84048C9.51811 9.84048 9.84048 9.51811 9.84048 9.12044C9.84048 8.72277 9.51811 8.40039 9.12044 8.40039C8.72277 8.40039 8.40039 8.72277 8.40039 9.12044C8.40039 9.51811 8.72277 9.84048 9.12044 9.84048Z" fill="#505567" stroke="#505567" stroke-width="1.5" stroke-linecap="round" stroke-linejoin="round"/>
<path d="M14.8802 15.6007C15.2779 15.6007 15.6002 15.2784 15.6002 14.8807C15.6002 14.483 15.2779 14.1606 14.8802 14.1606C14.4825 14.1606 14.1602 14.483 14.1602 14.8807C14.1602 15.2784 14.4825 15.6007 14.8802 15.6007Z" fill="#505567" stroke="#505567" stroke-width="1.5" stroke-linecap="round" stroke-linejoin="round"/>
</g>
<defs>
<clipPath id="clip0_24_57385">
<rect width="24" height="24" fill="white"/>
</clipPath>
</defs>
</svg>
