<svg width="24" height="24" viewBox="0 0 24 24" fill="none" xmlns="http://www.w3.org/2000/svg">
<path d="M12.5789 20.6539C14.2564 19.2446 18.9998 14.8226 18.9998 9.87972C18.9998 6.01365 15.8657 2.87958 11.9997 2.87958C8.13358 2.87958 4.99951 6.01365 4.99951 9.87972C4.99951 14.8226 9.74288 19.2446 11.4204 20.6539C11.76 20.9392 12.2393 20.9392 12.5789 20.6539Z" stroke="#505567" stroke-width="1.5" stroke-linecap="round" stroke-linejoin="round"/>
<path d="M11.9999 12.3358C13.5834 12.3358 14.8671 11.0522 14.8671 9.46869C14.8671 7.88522 13.5834 6.60156 11.9999 6.60156C10.4165 6.60156 9.13281 7.88522 9.13281 9.46869C9.13281 11.0522 10.4165 12.3358 11.9999 12.3358Z" stroke="#505567" stroke-width="1.5" stroke-linecap="round" stroke-linejoin="round"/>
</svg>
