<svg width="24" height="24" viewBox="0 0 24 24" fill="none" xmlns="http://www.w3.org/2000/svg">
<path d="M4 7.83301H20.0011" stroke="#505567" stroke-width="1.5" stroke-linecap="round"/>
<path d="M17.7496 7.83301H6.24725L6.16493 9.3213C6.00721 12.1728 6.14122 15.033 6.56486 17.8573C6.7496 19.0889 7.80758 20 9.05296 20H14.9439C16.1893 20 17.2473 19.0889 17.432 17.8573C17.8557 15.033 17.9897 12.1728 17.832 9.3213L17.7496 7.83301Z" fill="#F2F3F5"/>
<path d="M17.7496 7.83301H6.24725L6.16493 9.3213C6.00721 12.1728 6.14122 15.033 6.56486 17.8573C6.7496 19.0889 7.80758 20 9.05296 20H14.9439C16.1893 20 17.2473 19.0889 17.432 17.8573C17.8557 15.033 17.9897 12.1728 17.832 9.3213L17.7496 7.83301Z" stroke="#505567" stroke-width="1.5" stroke-linecap="round" stroke-linejoin="round"/>
<path d="M8.80273 7.83316V7.19413C8.80273 6.34674 9.13936 5.53405 9.73856 4.93485C10.3378 4.33565 11.1504 3.99902 11.9978 3.99902C12.8452 3.99902 13.6579 4.33565 14.2571 4.93485C14.8563 5.53405 15.193 6.34674 15.193 7.19413V7.83316" stroke="#505567" stroke-width="1.5" stroke-linecap="round" stroke-linejoin="round"/>
<path d="M10.0801 11.2549V16.5517" stroke="#505567" stroke-width="1.5" stroke-linecap="round" stroke-linejoin="round"/>
<path d="M13.916 11.2549V16.5517" stroke="#505567" stroke-width="1.5" stroke-linecap="round" stroke-linejoin="round"/>
</svg>
