<svg width="24" height="24" viewBox="0 0 24 24" fill="none" xmlns="http://www.w3.org/2000/svg">
<path d="M17.9005 5.62703C16.233 3.92432 13.9278 3 11.5736 3C6.57084 3 2.54905 7.03784 2.59809 11.9514C2.59809 13.5081 3.03951 15.0162 3.7752 16.3784L2.5 21L7.25749 19.7838C8.58174 20.5135 10.0531 20.8541 11.5245 20.8541C16.4782 20.8541 20.5 16.8162 20.5 11.9027C20.5 9.51892 19.5681 7.28108 17.9005 5.62703ZM11.5736 19.3459C10.2493 19.3459 8.92507 19.0054 7.797 18.3243L7.50272 18.1784L4.65804 18.9081L5.39373 16.1351L5.19755 15.8432C3.03951 12.3892 4.06948 7.81622 7.60082 5.67568C11.1322 3.53514 15.6935 4.55676 17.8515 8.05946C20.0095 11.5622 18.9796 16.0865 15.4482 18.227C14.3202 18.9568 12.9469 19.3459 11.5736 19.3459ZM15.8896 13.9459L15.3501 13.7027C15.3501 13.7027 14.5654 13.3622 14.0749 13.1189C14.0259 13.1189 13.9768 13.0703 13.9278 13.0703C13.7807 13.0703 13.6826 13.1189 13.5845 13.1676C13.5845 13.1676 13.5354 13.2162 12.8488 13.9946C12.7997 14.0919 12.7016 14.1405 12.6035 14.1405H12.5545C12.5054 14.1405 12.4074 14.0919 12.3583 14.0432L12.1131 13.9459C11.5736 13.7027 11.0831 13.4108 10.6907 13.0216C10.5926 12.9243 10.4455 12.827 10.3474 12.7297C10.0041 12.3892 9.66076 12 9.41553 11.5622L9.36648 11.4649C9.31744 11.4162 9.31744 11.3676 9.26839 11.2703C9.26839 11.173 9.26839 11.0757 9.31744 11.027C9.31744 11.027 9.51362 10.7838 9.66076 10.6378C9.75886 10.5405 9.8079 10.3946 9.90599 10.2973C10.0041 10.1514 10.0531 9.95676 10.0041 9.81081C9.95504 9.56757 9.36648 8.25405 9.21935 7.96216C9.12125 7.81622 9.02316 7.76757 8.87602 7.71892H8.72888C8.63079 7.71892 8.48365 7.71892 8.33651 7.71892C8.23842 7.71892 8.14033 7.76757 8.04223 7.76757L7.99319 7.81622C7.8951 7.86486 7.797 7.96216 7.69891 8.01081C7.60082 8.10811 7.55177 8.20541 7.45368 8.3027C7.11035 8.74054 6.91417 9.27568 6.91417 9.81081C6.91417 10.2 7.01226 10.5892 7.1594 10.9297L7.20845 11.0757C7.64986 12 8.23842 12.827 9.02316 13.5568L9.21935 13.7514C9.36648 13.8973 9.51362 13.9946 9.61172 14.1405C10.6417 15.0162 11.8188 15.6486 13.1431 15.9892C13.2902 16.0378 13.4864 16.0378 13.6335 16.0865C13.7807 16.0865 13.9768 16.0865 14.124 16.0865C14.3692 16.0865 14.6635 15.9892 14.8597 15.8919C15.0068 15.7946 15.1049 15.7946 15.203 15.6973L15.3011 15.6C15.3992 15.5027 15.4973 15.4541 15.5954 15.3568C15.6935 15.2595 15.7916 15.1622 15.8406 15.0649C15.9387 14.8703 15.9877 14.627 16.0368 14.3838C16.0368 14.2865 16.0368 14.1405 16.0368 14.0432C16.0368 14.0432 15.9877 13.9946 15.8896 13.9459Z" fill="#505567"/>
</svg>
