<svg width="16" height="17" viewBox="0 0 16 17" fill="none" xmlns="http://www.w3.org/2000/svg">
<path d="M14 8.01069C14 9.07185 11.3137 12.8107 8 12.8107C4.68629 12.8107 2 9.07185 2 8.01069C2 6.94954 4.68629 3.21069 8 3.21069C11.3137 3.21069 14 6.94954 14 8.01069Z" fill="white"/>
<path d="M14 8.01069C14 9.07185 11.3137 12.8107 8 12.8107C4.68629 12.8107 2 9.07185 2 8.01069C2 6.94954 4.68629 3.21069 8 3.21069C11.3137 3.21069 14 6.94954 14 8.01069Z" stroke="#505567" stroke-width="1.5" stroke-linejoin="round"/>
<path d="M8.0002 9.81069C8.99431 9.81069 9.8002 9.00481 9.8002 8.01069C9.8002 7.01658 8.99431 6.21069 8.0002 6.21069C7.00608 6.21069 6.2002 7.01658 6.2002 8.01069C6.2002 9.00481 7.00608 9.81069 8.0002 9.81069Z" fill="white" stroke="#505567" stroke-width="1.5" stroke-linecap="round" stroke-linejoin="round"/>
</svg>
